#!OML:ASF X:\für Bonn\!DataBase\2005_08_12_Daniel\c3d\Daniel.ASF
:FULLY-SPECIFIED
:DEGREES
206
root 4.61532 16.9423 -1.10962 -377.925 -87.6145 372.197
lowerback 10.7437 -4.91099 4.26353
upperback 4.47095 -6.25197 0.319942
thorax -1.73487 -3.15845 -1.27481
lowerneck 12.1414 16.2338 1.14362
upperneck -1.73772 21.117 -11.0476
head -1.18471 10.8562 -4.61797
rclavicle -4.62174e-014 5.1684e-015
rhumerus -50.5085 23.9825 -109.251
rradius 97.8855
rwrist 5.64926
rhand -21.4774 31.0222
rfingers 7.12502
rthumb 4.91341 1.09915
lclavicle -4.62174e-014 5.1684e-015
lhumerus -37.5212 -5.1003 93.5236
lradius 127.505
lwrist 4.64826
lhand -23.3126 -25.8288
lfingers 7.12502
lthumb 3.1412 4.12784
rfemur -19.6074 -0.844302 16.5639
rtibia 46.6051
rfoot -23.6542 -3.48159
rtoes -8.46898
lfemur -2.23261 -8.44672 -22.6403
ltibia 43.6609
lfoot -39.8902 19.3201
ltoes -16.8565
207
root 4.59262 16.9337 -1.11462 -381.127 -87.7953 375.438
lowerback 10.5277 -4.92428 4.1891
upperback 4.51609 -6.29134 0.263111
thorax -1.57165 -3.17578 -1.30916
lowerneck 12.1535 16.3509 1.11407
upperneck -1.8695 21.2677 -10.922
head -1.23757 10.9326 -4.58615
rclavicle -9.24349e-015 2.78299e-015
rhumerus -50.654 24.0222 -109.334
rradius 97.8668
rwrist 5.8156
rhand -21.2157 31.0316
rfingers 7.12502
rthumb 5.16607 1.11455
lclavicle -9.24349e-015 2.78299e-015
lhumerus -37.3386 -5.26769 93.3965
lradius 127.49
lwrist 4.72602
lhand -23.475 -25.7153
lfingers 7.12502
lthumb 2.98439 4.24353
rfemur -19.784 -0.855498 16.5099
rtibia 46.8689
rfoot -23.5958 -3.30972
rtoes -8.63823
lfemur -2.12121 -8.47962 -22.7906
ltibia 43.6515
lfoot -40.0913 19.5298
ltoes -16.8778
208
root 4.567 16.9255 -1.12107 -384.874 -87.931 379.208
lowerback 10.3088 -4.95317 4.07737
upperback 4.55947 -6.35421 0.220327
thorax -1.40462 -3.20535 -1.30613
lowerneck 12.1761 16.4763 1.10807
upperneck -1.98259 21.4324 -10.832
head -1.27832 11.0164 -4.56889
rclavicle -1.0963e-013 1.82882e-014
rhumerus -50.8226 24.0883 -109.401
rradius 97.8654
rwrist 5.9518
rhand -21.0293 31.0292
rfingers 7.12502
rthumb 5.34608 1.11662
lclavicle -1.0963e-013 1.82882e-014
lhumerus -37.1727 -5.43827 93.3129
lradius 127.491
lwrist 4.84166
lhand -23.6452 -25.5702
lfingers 7.12502
lthumb 2.82005 4.3909
rfemur -19.9143 -0.883006 16.4411
rtibia 47.1209
rfoot -23.5857 -3.1379
rtoes -8.80315
lfemur -1.96896 -8.5612 -22.9593
ltibia 43.6194
lfoot -40.2936 19.7358
ltoes -16.8742
209
root 4.54017 16.9176 -1.12843 -388.752 -88.0297 383.109
lowerback 10.0759 -4.98855 3.96928
upperback 4.61095 -6.42587 0.165806
thorax -1.22353 -3.23908 -1.31821
lowerneck 12.1857 16.5836 1.17424
upperneck -2.07744 21.5854 -10.7705
head -1.30038 11.0943 -4.56717
rclavicle -8.44835e-015 -1.82882e-014
rhumerus -50.9745 24.1443 -109.47
rradius 97.8911
rwrist 6.0669
rhand -20.9693 30.9166
rfingers 7.12502
rthumb 5.40403 1.00549
lclavicle -8.44835e-015 -1.82882e-014
lhumerus -36.9884 -5.64484 93.1797
lradius 127.494
lwrist 4.97477
lhand -23.8036 -25.4259
lfingers 7.12502
lthumb 2.66708 4.53722
rfemur -20.0239 -0.940002 16.3735
rtibia 47.3684
rfoot -23.588 -2.96154
rtoes -9.06419
lfemur -1.80796 -8.65672 -23.1265
ltibia 43.5756
lfoot -40.5004 19.9527
ltoes -16.9097
210
root 4.51214 16.9098 -1.13701 -392.829 -88.1066 387.226
lowerback 9.81594 -5.02994 3.84619
upperback 4.65711 -6.50669 0.123453
thorax -1.03063 -3.27754 -1.31133
lowerneck 12.2173 16.6915 1.28833
upperneck -2.16761 21.7444 -10.7588
head -1.31291 11.1768 -4.58954
rclavicle 2.05742e-014 -1.98785e-015
rhumerus -51.1121 24.1913 -109.508
rradius 97.9107
rwrist 6.18636
rhand -21.0005 30.7869
rfingers 7.12502
rthumb 5.37388 0.875014
lclavicle 2.05742e-014 -1.98785e-015
lhumerus -36.7974 -5.85321 93.0692
lradius 127.494
lwrist 5.08473
lhand -23.9472 -25.2112
lfingers 7.12502
lthumb 2.52839 4.75358
rfemur -20.1491 -1.00909 16.3081
rtibia 47.612
rfoot -23.6056 -2.80371
rtoes -9.21053
lfemur -1.65378 -8.75207 -23.2804
ltibia 43.5193
lfoot -40.6751 20.1231
ltoes -16.8572
211
root 4.48355 16.9016 -1.14654 -396.856 -88.1797 391.276
lowerback 9.57423 -5.07797 3.72476
upperback 4.71367 -6.5953 0.0993155
thorax -0.834938 -3.32043 -1.28546
lowerneck 12.202 16.7953 1.41134
upperneck -2.23142 21.901 -10.7869
head -1.30259 11.2577 -4.61761
rclavicle -2.41523e-014 1.19271e-015
rhumerus -51.2318 24.2443 -109.523
rradius 97.9504
rwrist 6.21297
rhand -21.02 30.6203
rfingers 7.12502
rthumb 5.35508 0.707925
lclavicle -2.41523e-014 1.19271e-015
lhumerus -36.5799 -6.03441 92.9687
lradius 127.478
lwrist 5.17558
lhand -24.024 -25.0059
lfingers 7.12502
lthumb 2.45421 4.95971
rfemur -20.2518 -1.09565 16.2649
rtibia 47.8588
rfoot -23.6441 -2.646
rtoes -9.42354
lfemur -1.48066 -8.84757 -23.4226
ltibia 43.4646
lfoot -40.85 20.3227
ltoes -16.8615
212
root 4.456 16.8935 -1.15668 -401.246 -88.2485 395.697
lowerback 9.35636 -5.14251 3.58142
upperback 4.74776 -6.7043 0.108985
thorax -0.669876 -3.37473 -1.20807
lowerneck 12.192 16.9169 1.50513
upperneck -2.26236 22.0757 -10.8557
head -1.27869 11.3479 -4.65244
rclavicle 7.60351e-014 -1.43125e-014
rhumerus -51.371 24.3601 -109.508
rradius 97.9625
rwrist 6.20892
rhand -21.0152 30.5085
rfingers 7.12502
rthumb 5.35965 0.596231
lclavicle 7.60351e-014 -1.43125e-014
lhumerus -36.4028 -6.1372 92.9162
lradius 127.479
lwrist 5.25604
lhand -24.0533 -24.8344
lfingers 7.12502
lthumb 2.4259 5.13157
rfemur -20.3719 -1.15524 16.2256
rtibia 48.1083
rfoot -23.6974 -2.49144
rtoes -9.54886
lfemur -1.31561 -8.93467 -23.5562
ltibia 43.4016
lfoot -41.0247 20.4882
ltoes -16.8239
213
root 4.42883 16.883 -1.16784 -406.144 -88.2968 400.612
lowerback 9.14568 -5.22149 3.40018
upperback 4.80764 -6.83643 0.146384
thorax -0.474724 -3.44181 -1.08124
lowerneck 12.1565 17.0716 1.41911
upperneck -2.58028 22.2417 -11.252
head -1.2005 11.4606 -4.31325
rclavicle 5.82439e-014 -1.55052e-014
rhumerus -51.455 24.5085 -109.445
rradius 97.9892
rwrist 6.1798
rhand -20.9517 30.3654
rfingers 7.12502
rthumb 5.421 0.454772
lclavicle 5.82439e-014 -1.55052e-014
lhumerus -36.1513 -6.15384 92.9008
lradius 127.448
lwrist 5.32597
lhand -23.947 -24.7703
lfingers 7.12502
lthumb 2.52857 5.19444
rfemur -20.4804 -1.24296 16.1756
rtibia 48.3615
rfoot -23.7589 -2.32268
rtoes -9.79963
lfemur -1.13491 -9.04972 -23.7107
ltibia 43.3382
lfoot -41.2104 20.6881
ltoes -16.8413
214
root 4.40075 16.8741 -1.17989 -410.999 -88.3528 405.497
lowerback 8.93291 -5.28985 3.26628
upperback 4.84807 -6.94872 0.176682
thorax -0.302988 -3.49849 -0.989621
lowerneck 12.1126 17.1897 1.51049
upperneck -2.59049 22.4117 -11.3695
head -1.16182 11.5486 -4.35002
rclavicle -8.94531e-015 -7.95139e-016
rhumerus -51.5026 24.583 -109.385
rradius 97.9685
rwrist 6.14319
rhand -20.887 30.2249
rfingers 7.12502
rthumb 5.48348 0.31587
lclavicle -8.94531e-015 -7.95139e-016
lhumerus -35.9627 -6.21856 92.881
lradius 127.449
lwrist 5.41905
lhand -23.7743 -24.7195
lfingers 7.12502
lthumb 2.69531 5.24317
rfemur -20.6054 -1.31159 16.1539
rtibia 48.6133
rfoot -23.8371 -2.17383
rtoes -9.96453
lfemur -0.961486 -9.15825 -23.8374
ltibia 43.264
lfoot -41.3917 20.869
ltoes -16.7942
215
root 4.37278 16.8651 -1.19251 -415.411 -88.3877 409.942
lowerback 8.72042 -5.36181 3.14637
upperback 4.88902 -7.06422 0.210771
thorax -0.131395 -3.55685 -0.902425
lowerneck 12.055 17.2948 1.60569
upperneck -2.57935 22.5669 -11.4813
head -1.11564 11.6281 -4.38264
rclavicle 1.92821e-014 -5.56597e-015
rhumerus -51.5593 24.6108 -109.312
rradius 97.9852
rwrist 6.07876
rhand -20.738 30.0971
rfingers 7.12502
rthumb 5.62729 0.191824
lclavicle 1.92821e-014 -5.56597e-015
lhumerus -35.7654 -6.30128 92.8875
lradius 127.428
lwrist 5.43751
lhand -23.5989 -24.7064
lfingers 7.12502
lthumb 2.86468 5.25415
rfemur -20.7213 -1.39476 16.1372
rtibia 48.8619
rfoot -23.9186 -2.00938
rtoes -10.0833
lfemur -0.796026 -9.25672 -23.9465
ltibia 43.1861
lfoot -41.5686 21.0513
ltoes -16.8196
216
root 4.34434 16.8547 -1.20652 -420.333 -88.4119 414.873
lowerback 8.53542 -5.43333 3.02898
upperback 4.93299 -7.17783 0.237173
thorax 0.0278281 -3.6146 -0.822949
lowerneck 11.9835 17.3952 1.71351
upperneck -2.55124 22.7194 -11.5981
head -1.06026 11.7054 -4.41502
rclavicle -6.1822e-014 9.54166e-015
rhumerus -51.6144 24.6091 -109.254
rradius 98.0002
rwrist 6.02291
rhand -20.6347 29.9435
rfingers 7.12502
rthumb 5.72701 0.0409241
lclavicle -6.1822e-014 9.54166e-015
lhumerus -35.5915 -6.38841 92.906
lradius 127.404
lwrist 5.37457
lhand -23.4816 -24.6971
lfingers 7.12502
lthumb 2.978 5.26187
rfemur -20.8059 -1.46949 16.123
rtibia 49.1111
rfoot -24.021 -1.85943
rtoes -10.1713
lfemur -0.588285 -9.37974 -24.072
ltibia 43.0958
lfoot -41.7478 21.229
ltoes -16.77
217
root 4.31566 16.8443 -1.22055 -425.112 -88.4363 419.67
lowerback 8.35554 -5.49206 2.96494
upperback 4.95504 -7.26851 0.256043
thorax 0.155584 -3.65996 -0.780923
lowerneck 11.9569 17.4805 1.8407
upperneck -2.5206 22.8532 -11.708
head -1.01066 11.7738 -4.45157
rclavicle 7.89175e-014 -3.06128e-014
rhumerus -51.6705 24.5118 -109.171
rradius 98.02
rwrist 5.96361
rhand -20.4514 29.8156
rfingers 7.12502
rthumb 5.90401 -0.0821407
lclavicle 7.89175e-014 -3.06128e-014
lhumerus -35.4743 -6.51889 92.9569
lradius 127.374
lwrist 5.2207
lhand -23.3934 -24.6996
lfingers 7.12502
lthumb 3.06317 5.25818
rfemur -20.8979 -1.55885 16.1232
rtibia 49.3583
rfoot -24.1108 -1.69976
rtoes -10.2292
lfemur -0.396092 -9.46019 -24.1664
ltibia 43
lfoot -41.9067 21.4167
ltoes -16.8315
